<?xml version="1.0" encoding="UTF-8" standalone="no"?>
<!DOCTYPE svg PUBLIC "-//W3C//DTD SVG 1.1//EN" "http://www.w3.org/Graphics/SVG/1.1/DTD/svg11.dtd">
<svg xmlns="http://www.w3.org/2000/svg" version="1.1" viewBox="0.00 0.00 625.00 204.00">
<g stroke-width="2.00" fill="none" stroke-linecap="butt">
<path stroke="#f29b8f" vector-effect="non-scaling-stroke" d="
  M 148.74 102.19
  A 38.82 38.82 0.0 0 0 109.92 63.37
  A 38.82 38.82 0.0 0 0 71.10 102.19
  A 38.82 38.82 0.0 0 0 109.92 141.01
  A 38.82 38.82 0.0 0 0 148.74 102.19"
/>
<path stroke="#878788" vector-effect="non-scaling-stroke" d="
  M 417.52 107.92
  Q 417.45 89.30 417.51 70.70
  C 417.54 62.15 408.01 62.80 408.00 68.75
  Q 407.99 100.78 408.01 132.82
  Q 408.01 136.21 408.66 137.45
  C 410.44 140.87 416.63 140.34 417.26 136.25
  Q 417.83 132.58 417.38 121.29
  Q 417.36 120.70 417.77 120.26
  L 421.33 116.48
  A 1.00 1.00 0.0 0 1 422.84 116.54
  Q 432.03 128.04 440.93 138.84
  C 444.71 143.43 452.07 138.02 447.23 132.00
  Q 438.32 120.95 429.32 110.03
  A 0.38 0.38 0.0 0 1 429.36 109.49
  C 435.04 104.57 440.59 99.29 446.46 94.56
  C 450.41 91.37 448.21 84.88 442.62 86.65
  Q 441.60 86.97 438.74 89.49
  Q 428.25 98.71 417.89 108.08
  Q 417.53 108.42 417.52 107.92"
/>
<path stroke="#878788" vector-effect="non-scaling-stroke" d="
  M 250.42 88.26
  Q 250.70 81.42 250.35 74.56
  C 250.01 68.09 241.02 68.53 240.93 75.25
  Q 240.62 97.79 240.88 120.30
  Q 241.02 132.46 250.45 137.96
  C 253.60 139.80 260.75 140.96 263.69 138.26
  C 267.73 134.54 263.94 130.33 259.39 130.31
  Q 251.00 130.29 250.58 121.42
  Q 250.29 115.23 250.58 97.57
  Q 250.59 97.04 251.12 97.03
  C 253.91 96.95 259.11 97.60 261.37 96.32
  C 263.77 94.97 263.86 91.43 261.68 89.76
  C 259.45 88.05 253.65 88.78 250.86 88.72
  Q 250.40 88.71 250.42 88.26"
/>
<path stroke="#878788" vector-effect="non-scaling-stroke" d="
  M 217.75 108.62
  C 215.66 83.24 193.37 86.08 175.12 86.26
  C 171.24 86.30 168.27 87.51 168.27 91.75
  Q 168.22 113.09 168.27 134.43
  C 168.27 135.71 169.00 136.85 169.30 138.11
  Q 169.42 138.61 169.86 138.85
  C 175.40 141.79 178.27 138.26 178.26 132.96
  Q 178.22 120.61 178.21 108.25
  C 178.19 91.01 208.11 90.41 208.20 110.50
  Q 208.25 123.10 208.27 135.69
  C 208.28 141.03 217.56 141.86 218.00 134.94
  Q 218.83 121.73 217.75 108.62"
/>
<path stroke="#878788" vector-effect="non-scaling-stroke" d="
  M 280.73 103.72
  C 274.92 117.95 283.10 136.65 298.83 139.77
  Q 302.30 140.46 313.23 140.55
  C 316.79 140.58 332.18 142.08 332.22 136.45
  Q 332.30 125.59 332.21 114.76
  C 331.93 84.15 292.37 75.22 280.73 103.72"
/>
<path stroke="#878788" vector-effect="non-scaling-stroke" d="
  M 352.39 93.90
  C 347.73 100.18 350.27 107.79 356.26 111.70
  C 363.08 116.16 372.12 116.45 377.32 118.90
  C 383.45 121.79 382.80 128.99 376.27 130.79
  Q 369.10 132.76 361.86 129.86
  C 357.88 128.27 352.72 121.19 348.66 127.45
  C 342.05 137.68 384.22 149.48 390.57 128.52
  C 395.59 111.93 374.60 109.60 364.50 106.77
  C 360.92 105.77 357.80 101.58 360.48 98.28
  C 363.80 94.20 372.30 94.68 376.70 96.18
  C 380.61 97.51 386.16 104.82 390.07 98.51
  A 1.45 1.40 58.2 0 0 390.27 97.59
  C 389.33 88.87 373.58 85.93 366.98 86.72
  C 360.85 87.45 356.01 89.02 352.39 93.90"
/>
<path stroke="#f29b8f" vector-effect="non-scaling-stroke" d="
  M 145.13 102.20
  A 35.22 35.22 0.0 0 0 109.91 66.98
  A 35.22 35.22 0.0 0 0 74.69 102.20
  A 35.22 35.22 0.0 0 0 109.91 137.42
  A 35.22 35.22 0.0 0 0 145.13 102.20"
/>
<path stroke="#f29b8f" vector-effect="non-scaling-stroke" d="
  M 123.38 93.47
  A 0.56 0.56 0.0 0 0 123.35 92.65
  L 121.48 91.06
  A 0.56 0.56 0.0 0 0 120.71 91.10
  L 110.12 102.13
  A 0.56 0.56 0.0 0 1 109.34 102.16
  L 90.59 85.28
  A 0.56 0.56 0.0 0 0 89.82 85.30
  L 88.14 86.98
  A 0.56 0.56 0.0 0 0 88.16 87.79
  L 109.52 107.00
  A 0.56 0.56 0.0 0 0 110.30 106.97
  L 123.38 93.47"
/>
<path stroke="#878788" vector-effect="non-scaling-stroke" d="
  M 305.6032 131.4999
  A 18.10 17.17 89.8 0 0 322.7099 113.3401
  A 18.10 17.17 89.8 0 0 305.4768 95.3001
  A 18.10 17.17 89.8 0 0 288.3701 113.4599
  A 18.10 17.17 89.8 0 0 305.6032 131.4999"
/>
</g>
<path fill="#fcfcfc" d="
  M 0.00 0.00
  L 625.00 0.00
  L 625.00 204.00
  L 0.00 204.00
  L 0.00 0.00
  Z
  M 148.74 102.19
  A 38.82 38.82 0.0 0 0 109.92 63.37
  A 38.82 38.82 0.0 0 0 71.10 102.19
  A 38.82 38.82 0.0 0 0 109.92 141.01
  A 38.82 38.82 0.0 0 0 148.74 102.19
  Z
  M 417.52 107.92
  Q 417.45 89.30 417.51 70.70
  C 417.54 62.15 408.01 62.80 408.00 68.75
  Q 407.99 100.78 408.01 132.82
  Q 408.01 136.21 408.66 137.45
  C 410.44 140.87 416.63 140.34 417.26 136.25
  Q 417.83 132.58 417.38 121.29
  Q 417.36 120.70 417.77 120.26
  L 421.33 116.48
  A 1.00 1.00 0.0 0 1 422.84 116.54
  Q 432.03 128.04 440.93 138.84
  C 444.71 143.43 452.07 138.02 447.23 132.00
  Q 438.32 120.95 429.32 110.03
  A 0.38 0.38 0.0 0 1 429.36 109.49
  C 435.04 104.57 440.59 99.29 446.46 94.56
  C 450.41 91.37 448.21 84.88 442.62 86.65
  Q 441.60 86.97 438.74 89.49
  Q 428.25 98.71 417.89 108.08
  Q 417.53 108.42 417.52 107.92
  Z
  M 250.42 88.26
  Q 250.70 81.42 250.35 74.56
  C 250.01 68.09 241.02 68.53 240.93 75.25
  Q 240.62 97.79 240.88 120.30
  Q 241.02 132.46 250.45 137.96
  C 253.60 139.80 260.75 140.96 263.69 138.26
  C 267.73 134.54 263.94 130.33 259.39 130.31
  Q 251.00 130.29 250.58 121.42
  Q 250.29 115.23 250.58 97.57
  Q 250.59 97.04 251.12 97.03
  C 253.91 96.95 259.11 97.60 261.37 96.32
  C 263.77 94.97 263.86 91.43 261.68 89.76
  C 259.45 88.05 253.65 88.78 250.86 88.72
  Q 250.40 88.71 250.42 88.26
  Z
  M 217.75 108.62
  C 215.66 83.24 193.37 86.08 175.12 86.26
  C 171.24 86.30 168.27 87.51 168.27 91.75
  Q 168.22 113.09 168.27 134.43
  C 168.27 135.71 169.00 136.85 169.30 138.11
  Q 169.42 138.61 169.86 138.85
  C 175.40 141.79 178.27 138.26 178.26 132.96
  Q 178.22 120.61 178.21 108.25
  C 178.19 91.01 208.11 90.41 208.20 110.50
  Q 208.25 123.10 208.27 135.69
  C 208.28 141.03 217.56 141.86 218.00 134.94
  Q 218.83 121.73 217.75 108.62
  Z
  M 280.73 103.72
  C 274.92 117.95 283.10 136.65 298.83 139.77
  Q 302.30 140.46 313.23 140.55
  C 316.79 140.58 332.18 142.08 332.22 136.45
  Q 332.30 125.59 332.21 114.76
  C 331.93 84.15 292.37 75.22 280.73 103.72
  Z
  M 352.39 93.90
  C 347.73 100.18 350.27 107.79 356.26 111.70
  C 363.08 116.16 372.12 116.45 377.32 118.90
  C 383.45 121.79 382.80 128.99 376.27 130.79
  Q 369.10 132.76 361.86 129.86
  C 357.88 128.27 352.72 121.19 348.66 127.45
  C 342.05 137.68 384.22 149.48 390.57 128.52
  C 395.59 111.93 374.60 109.60 364.50 106.77
  C 360.92 105.77 357.80 101.58 360.48 98.28
  C 363.80 94.20 372.30 94.68 376.70 96.18
  C 380.61 97.51 386.16 104.82 390.07 98.51
  A 1.45 1.40 58.2 0 0 390.27 97.59
  C 389.33 88.87 373.58 85.93 366.98 86.72
  C 360.85 87.45 356.01 89.02 352.39 93.90
  Z"
/>
<path fill="#e73a22" d="
  M 148.74 102.19
  A 38.82 38.82 0.0 0 1 109.92 141.01
  A 38.82 38.82 0.0 0 1 71.10 102.19
  A 38.82 38.82 0.0 0 1 109.92 63.37
  A 38.82 38.82 0.0 0 1 148.74 102.19
  Z
  M 145.13 102.20
  A 35.22 35.22 0.0 0 0 109.91 66.98
  A 35.22 35.22 0.0 0 0 74.69 102.20
  A 35.22 35.22 0.0 0 0 109.91 137.42
  A 35.22 35.22 0.0 0 0 145.13 102.20
  Z"
/>
<path fill="#121213" d="
  M 417.89 108.08
  Q 428.25 98.71 438.74 89.49
  Q 441.60 86.97 442.62 86.65
  C 448.21 84.88 450.41 91.37 446.46 94.56
  C 440.59 99.29 435.04 104.57 429.36 109.49
  A 0.38 0.38 0.0 0 0 429.32 110.03
  Q 438.32 120.95 447.23 132.00
  C 452.07 138.02 444.71 143.43 440.93 138.84
  Q 432.03 128.04 422.84 116.54
  A 1.00 1.00 0.0 0 0 421.33 116.48
  L 417.77 120.26
  Q 417.36 120.70 417.38 121.29
  Q 417.83 132.58 417.26 136.25
  C 416.63 140.34 410.44 140.87 408.66 137.45
  Q 408.01 136.21 408.01 132.82
  Q 407.99 100.78 408.00 68.75
  C 408.01 62.80 417.54 62.15 417.51 70.70
  Q 417.45 89.30 417.52 107.92
  Q 417.53 108.42 417.89 108.08
  Z"
/>
<path fill="#fcfcfc" d="
  M 145.13 102.20
  A 35.22 35.22 0.0 0 1 109.91 137.42
  A 35.22 35.22 0.0 0 1 74.69 102.20
  A 35.22 35.22 0.0 0 1 109.91 66.98
  A 35.22 35.22 0.0 0 1 145.13 102.20
  Z
  M 123.38 93.47
  A 0.56 0.56 0.0 0 0 123.35 92.65
  L 121.48 91.06
  A 0.56 0.56 0.0 0 0 120.71 91.10
  L 110.12 102.13
  A 0.56 0.56 0.0 0 1 109.34 102.16
  L 90.59 85.28
  A 0.56 0.56 0.0 0 0 89.82 85.30
  L 88.14 86.98
  A 0.56 0.56 0.0 0 0 88.16 87.79
  L 109.52 107.00
  A 0.56 0.56 0.0 0 0 110.30 106.97
  L 123.38 93.47
  Z"
/>
<path fill="#121213" d="
  M 250.86 88.72
  C 253.65 88.78 259.45 88.05 261.68 89.76
  C 263.86 91.43 263.77 94.97 261.37 96.32
  C 259.11 97.60 253.91 96.95 251.12 97.03
  Q 250.59 97.04 250.58 97.57
  Q 250.29 115.23 250.58 121.42
  Q 251.00 130.29 259.39 130.31
  C 263.94 130.33 267.73 134.54 263.69 138.26
  C 260.75 140.96 253.60 139.80 250.45 137.96
  Q 241.02 132.46 240.88 120.30
  Q 240.62 97.79 240.93 75.25
  C 241.02 68.53 250.01 68.09 250.35 74.56
  Q 250.70 81.42 250.42 88.26
  Q 250.40 88.71 250.86 88.72
  Z"
/>
<path fill="#e73a22" d="
  M 123.38 93.47
  L 110.30 106.97
  A 0.56 0.56 0.0 0 1 109.52 107.00
  L 88.16 87.79
  A 0.56 0.56 0.0 0 1 88.14 86.98
  L 89.82 85.30
  A 0.56 0.56 0.0 0 1 90.59 85.28
  L 109.34 102.16
  A 0.56 0.56 0.0 0 0 110.12 102.13
  L 120.71 91.10
  A 0.56 0.56 0.0 0 1 121.48 91.06
  L 123.35 92.65
  A 0.56 0.56 0.0 0 1 123.38 93.47
  Z"
/>
<path fill="#121213" d="
  M 175.12 86.26
  C 193.37 86.08 215.66 83.24 217.75 108.62
  Q 218.83 121.73 218.00 134.94
  C 217.56 141.86 208.28 141.03 208.27 135.69
  Q 208.25 123.10 208.20 110.50
  C 208.11 90.41 178.19 91.01 178.21 108.25
  Q 178.22 120.61 178.26 132.96
  C 178.27 138.26 175.40 141.79 169.86 138.85
  Q 169.42 138.61 169.30 138.11
  C 169.00 136.85 168.27 135.71 168.27 134.43
  Q 168.22 113.09 168.27 91.75
  C 168.27 87.51 171.24 86.30 175.12 86.26
  Z"
/>
<path fill="#121213" d="
  M 280.73 103.72
  C 292.37 75.22 331.93 84.15 332.21 114.76
  Q 332.30 125.59 332.22 136.45
  C 332.18 142.08 316.79 140.58 313.23 140.55
  Q 302.30 140.46 298.83 139.77
  C 283.10 136.65 274.92 117.95 280.73 103.72
  Z
  M 305.6032 131.4999
  A 18.10 17.17 89.8 0 0 322.7099 113.3401
  A 18.10 17.17 89.8 0 0 305.4768 95.3001
  A 18.10 17.17 89.8 0 0 288.3701 113.4599
  A 18.10 17.17 89.8 0 0 305.6032 131.4999
  Z"
/>
<path fill="#121213" d="
  M 352.39 93.90
  C 356.01 89.02 360.85 87.45 366.98 86.72
  C 373.58 85.93 389.33 88.87 390.27 97.59
  A 1.45 1.40 58.2 0 1 390.07 98.51
  C 386.16 104.82 380.61 97.51 376.70 96.18
  C 372.30 94.68 363.80 94.20 360.48 98.28
  C 357.80 101.58 360.92 105.77 364.50 106.77
  C 374.60 109.60 395.59 111.93 390.57 128.52
  C 384.22 149.48 342.05 137.68 348.66 127.45
  C 352.72 121.19 357.88 128.27 361.86 129.86
  Q 369.10 132.76 376.27 130.79
  C 382.80 128.99 383.45 121.79 377.32 118.90
  C 372.12 116.45 363.08 116.16 356.26 111.70
  C 350.27 107.79 347.73 100.18 352.39 93.90
  Z"
/>
<ellipse fill="#fcfcfc" cx="0.00" cy="0.00" transform="translate(305.54,113.40) rotate(89.8)" rx="18.10" ry="17.17"/>
</svg>
