<svg xmlns:inkscape="http://www.inkscape.org/namespaces/inkscape" xmlns:sodipodi="http://sodipodi.sourceforge.net/DTD/sodipodi-0.dtd" xmlns="http://www.w3.org/2000/svg" xmlns:svg="http://www.w3.org/2000/svg" version="1.1" id="svg42" sodipodi:docname="a8eb87613a9c7caa85b6e895fe9a43f8.svg" viewBox="0 0 625 204">
  <defs id="defs46"/>
  <sodipodi:namedview id="namedview44" pagecolor="#ffffff" bordercolor="#666666" borderopacity="1.0" inkscape:pageshadow="2" inkscape:pageopacity="0.0" inkscape:pagecheckerboard="0"/>
  <g stroke-width="2" fill="none" stroke-linecap="butt" id="g20">
    <path stroke="#f29b8f" vector-effect="non-scaling-stroke" d="m 148.74,102.19 a 38.82,38.82 0 0 0 -38.82,-38.82 38.82,38.82 0 0 0 -38.82,38.82 38.82,38.82 0 0 0 38.82,38.82 38.82,38.82 0 0 0 38.82,-38.82" id="path2"/>
    <path stroke="#878788" vector-effect="non-scaling-stroke" d="M 417.52,107.92 Q 417.45,89.3 417.51,70.7 c 0.03,-8.55 -9.5,-7.9 -9.51,-1.95 q -0.01,32.03 0.01,64.07 0,3.39 0.65,4.63 c 1.78,3.42 7.97,2.89 8.6,-1.2 q 0.57,-3.67 0.12,-14.96 -0.02,-0.59 0.39,-1.03 l 3.56,-3.78 a 1,1 0 0 1 1.51,0.06 q 9.19,11.5 18.09,22.3 c 3.78,4.59 11.14,-0.82 6.3,-6.84 q -8.91,-11.05 -17.91,-21.97 a 0.38,0.38 0 0 1 0.04,-0.54 c 5.68,-4.92 11.23,-10.2 17.1,-14.93 3.95,-3.19 1.75,-9.68 -3.84,-7.91 q -1.02,0.32 -3.88,2.84 -10.49,9.22 -20.85,18.59 -0.36,0.34 -0.37,-0.16" id="path4"/>
    <path stroke="#878788" vector-effect="non-scaling-stroke" d="m 250.42,88.26 q 0.28,-6.84 -0.07,-13.7 c -0.34,-6.47 -9.33,-6.03 -9.42,0.69 q -0.31,22.54 -0.05,45.05 0.14,12.16 9.57,17.66 c 3.15,1.84 10.3,3 13.24,0.3 4.04,-3.72 0.25,-7.93 -4.3,-7.95 q -8.39,-0.02 -8.81,-8.89 -0.29,-6.19 0,-23.85 0.01,-0.53 0.54,-0.54 c 2.79,-0.08 7.99,0.57 10.25,-0.71 2.4,-1.35 2.49,-4.89 0.31,-6.56 -2.23,-1.71 -8.03,-0.98 -10.82,-1.04 q -0.46,-0.01 -0.44,-0.46" id="path6"/>
    <path stroke="#878788" vector-effect="non-scaling-stroke" d="m 217.75,108.62 c -2.09,-25.38 -24.38,-22.54 -42.63,-22.36 -3.88,0.04 -6.85,1.25 -6.85,5.49 q -0.05,21.34 0,42.68 c 0,1.28 0.73,2.42 1.03,3.68 q 0.12,0.5 0.56,0.74 c 5.54,2.94 8.41,-0.59 8.4,-5.89 q -0.04,-12.35 -0.05,-24.71 c -0.02,-17.24 29.9,-17.84 29.99,2.25 q 0.05,12.6 0.07,25.19 c 0.01,5.34 9.29,6.17 9.73,-0.75 q 0.83,-13.21 -0.25,-26.32" id="path8"/>
    <path stroke="#878788" vector-effect="non-scaling-stroke" d="m 280.73,103.72 c -5.81,14.23 2.37,32.93 18.1,36.05 q 3.47,0.69 14.4,0.78 c 3.56,0.03 18.95,1.53 18.99,-4.1 q 0.08,-10.86 -0.01,-21.69 C 331.93,84.15 292.37,75.22 280.73,103.72" id="path10"/>
    <path stroke="#878788" vector-effect="non-scaling-stroke" d="m 352.39,93.9 c -4.66,6.28 -2.12,13.89 3.87,17.8 6.82,4.46 15.86,4.75 21.06,7.2 6.13,2.89 5.48,10.09 -1.05,11.89 q -7.17,1.97 -14.41,-0.93 c -3.98,-1.59 -9.14,-8.67 -13.2,-2.41 -6.61,10.23 35.56,22.03 41.91,1.07 5.02,-16.59 -15.97,-18.92 -26.07,-21.75 -3.58,-1 -6.7,-5.19 -4.02,-8.49 3.32,-4.08 11.82,-3.6 16.22,-2.1 3.91,1.33 9.46,8.64 13.37,2.33 a 1.45,1.4 58.2 0 0 0.2,-0.92 c -0.94,-8.72 -16.69,-11.66 -23.29,-10.87 -6.13,0.73 -10.97,2.3 -14.59,7.18" id="path12"/>
    <path stroke="#f29b8f" vector-effect="non-scaling-stroke" d="M 145.13,102.2 A 35.22,35.22 0 0 0 109.91,66.98 35.22,35.22 0 0 0 74.69,102.2 35.22,35.22 0 0 0 109.91,137.42 35.22,35.22 0 0 0 145.13,102.2" id="path14"/>
    <path stroke="#f29b8f" vector-effect="non-scaling-stroke" d="m 123.38,93.47 a 0.56,0.56 0 0 0 -0.03,-0.82 l -1.87,-1.59 a 0.56,0.56 0 0 0 -0.77,0.04 l -10.59,11.03 a 0.56,0.56 0 0 1 -0.78,0.03 L 90.59,85.28 a 0.56,0.56 0 0 0 -0.77,0.02 l -1.68,1.68 a 0.56,0.56 0 0 0 0.02,0.81 L 109.52,107 a 0.56,0.56 0 0 0 0.78,-0.03 l 13.08,-13.5" id="path16"/>
    <path stroke="#878788" vector-effect="non-scaling-stroke" d="m 305.6032,131.4999 a 18.1,17.17 89.8 0 0 17.1067,-18.1598 18.1,17.17 89.8 0 0 -17.2331,-18.04 18.1,17.17 89.8 0 0 -17.1067,18.1598 18.1,17.17 89.8 0 0 17.2331,18.04" id="path18"/>
  </g>
  <path fill="#fcfcfc" d="M 0,0 H 625 V 204 H 0 Z m 148.74,102.19 a 38.82,38.82 0 0 0 -38.82,-38.82 38.82,38.82 0 0 0 -38.82,38.82 38.82,38.82 0 0 0 38.82,38.82 38.82,38.82 0 0 0 38.82,-38.82 z m 268.78,5.73 Q 417.45,89.3 417.51,70.7 c 0.03,-8.55 -9.5,-7.9 -9.51,-1.95 q -0.01,32.03 0.01,64.07 0,3.39 0.65,4.63 c 1.78,3.42 7.97,2.89 8.6,-1.2 q 0.57,-3.67 0.12,-14.96 -0.02,-0.59 0.39,-1.03 l 3.56,-3.78 a 1,1 0 0 1 1.51,0.06 q 9.19,11.5 18.09,22.3 c 3.78,4.59 11.14,-0.82 6.3,-6.84 q -8.91,-11.05 -17.91,-21.97 a 0.38,0.38 0 0 1 0.04,-0.54 c 5.68,-4.92 11.23,-10.2 17.1,-14.93 3.95,-3.19 1.75,-9.68 -3.84,-7.91 q -1.02,0.32 -3.88,2.84 -10.49,9.22 -20.85,18.59 -0.36,0.34 -0.37,-0.16 z M 250.42,88.26 q 0.28,-6.84 -0.07,-13.7 c -0.34,-6.47 -9.33,-6.03 -9.42,0.69 q -0.31,22.54 -0.05,45.05 0.14,12.16 9.57,17.66 c 3.15,1.84 10.3,3 13.24,0.3 4.04,-3.72 0.25,-7.93 -4.3,-7.95 q -8.39,-0.02 -8.81,-8.89 -0.29,-6.19 0,-23.85 0.01,-0.53 0.54,-0.54 c 2.79,-0.08 7.99,0.57 10.25,-0.71 2.4,-1.35 2.49,-4.89 0.31,-6.56 -2.23,-1.71 -8.03,-0.98 -10.82,-1.04 q -0.46,-0.01 -0.44,-0.46 z m -32.67,20.36 c -2.09,-25.38 -24.38,-22.54 -42.63,-22.36 -3.88,0.04 -6.85,1.25 -6.85,5.49 q -0.05,21.34 0,42.68 c 0,1.28 0.73,2.42 1.03,3.68 q 0.12,0.5 0.56,0.74 c 5.54,2.94 8.41,-0.59 8.4,-5.89 q -0.04,-12.35 -0.05,-24.71 c -0.02,-17.24 29.9,-17.84 29.99,2.25 q 0.05,12.6 0.07,25.19 c 0.01,5.34 9.29,6.17 9.73,-0.75 q 0.83,-13.21 -0.25,-26.32 z m 62.98,-4.9 c -5.81,14.23 2.37,32.93 18.1,36.05 q 3.47,0.69 14.4,0.78 c 3.56,0.03 18.95,1.53 18.99,-4.1 q 0.08,-10.86 -0.01,-21.69 C 331.93,84.15 292.37,75.22 280.73,103.72 Z m 71.66,-9.82 c -4.66,6.28 -2.12,13.89 3.87,17.8 6.82,4.46 15.86,4.75 21.06,7.2 6.13,2.89 5.48,10.09 -1.05,11.89 q -7.17,1.97 -14.41,-0.93 c -3.98,-1.59 -9.14,-8.67 -13.2,-2.41 -6.61,10.23 35.56,22.03 41.91,1.07 5.02,-16.59 -15.97,-18.92 -26.07,-21.75 -3.58,-1 -6.7,-5.19 -4.02,-8.49 3.32,-4.08 11.82,-3.6 16.22,-2.1 3.91,1.33 9.46,8.64 13.37,2.33 a 1.45,1.4 58.2 0 0 0.2,-0.92 c -0.94,-8.72 -16.69,-11.66 -23.29,-10.87 -6.13,0.73 -10.97,2.3 -14.59,7.18 z" id="path22"/>
  <path fill="#e73a22" d="m 148.74,102.19 a 38.82,38.82 0 0 1 -38.82,38.82 38.82,38.82 0 0 1 -38.82,-38.82 38.82,38.82 0 0 1 38.82,-38.82 38.82,38.82 0 0 1 38.82,38.82 z m -3.61,0.01 a 35.22,35.22 0 0 0 -35.22,-35.22 35.22,35.22 0 0 0 -35.22,35.22 35.22,35.22 0 0 0 35.22,35.22 35.22,35.22 0 0 0 35.22,-35.22 z" id="path24"/>
  <path fill="#121213" d="m 417.89,108.08 q 10.36,-9.37 20.85,-18.59 2.86,-2.52 3.88,-2.84 c 5.59,-1.77 7.79,4.72 3.84,7.91 -5.87,4.73 -11.42,10.01 -17.1,14.93 a 0.38,0.38 0 0 0 -0.04,0.54 q 9,10.92 17.91,21.97 c 4.84,6.02 -2.52,11.43 -6.3,6.84 q -8.9,-10.8 -18.09,-22.3 a 1,1 0 0 0 -1.51,-0.06 l -3.56,3.78 q -0.41,0.44 -0.39,1.03 0.45,11.29 -0.12,14.96 c -0.63,4.09 -6.82,4.62 -8.6,1.2 q -0.65,-1.24 -0.65,-4.63 -0.02,-32.04 -0.01,-64.07 c 0.01,-5.95 9.54,-6.6 9.51,1.95 q -0.06,18.6 0.01,37.22 0.01,0.5 0.37,0.16 z" id="path26"/>
  <path fill="#fcfcfc" d="m 145.13,102.2 a 35.22,35.22 0 0 1 -35.22,35.22 35.22,35.22 0 0 1 -35.22,-35.22 35.22,35.22 0 0 1 35.22,-35.22 35.22,35.22 0 0 1 35.22,35.22 z m -21.75,-8.73 a 0.56,0.56 0 0 0 -0.03,-0.82 l -1.87,-1.59 a 0.56,0.56 0 0 0 -0.77,0.04 l -10.59,11.03 a 0.56,0.56 0 0 1 -0.78,0.03 L 90.59,85.28 a 0.56,0.56 0 0 0 -0.77,0.02 l -1.68,1.68 a 0.56,0.56 0 0 0 0.02,0.81 L 109.52,107 a 0.56,0.56 0 0 0 0.78,-0.03 z" id="path28"/>
  <path fill="#121213" d="m 250.86,88.72 c 2.79,0.06 8.59,-0.67 10.82,1.04 2.18,1.67 2.09,5.21 -0.31,6.56 -2.26,1.28 -7.46,0.63 -10.25,0.71 q -0.53,0.01 -0.54,0.54 -0.29,17.66 0,23.85 0.42,8.87 8.81,8.89 c 4.55,0.02 8.34,4.23 4.3,7.95 -2.94,2.7 -10.09,1.54 -13.24,-0.3 q -9.43,-5.5 -9.57,-17.66 -0.26,-22.51 0.05,-45.05 c 0.09,-6.72 9.08,-7.16 9.42,-0.69 q 0.35,6.86 0.07,13.7 -0.02,0.45 0.44,0.46 z" id="path30"/>
  <path fill="#e73a22" d="m 123.38,93.47 -13.08,13.5 A 0.56,0.56 0 0 1 109.52,107 L 88.16,87.79 a 0.56,0.56 0 0 1 -0.02,-0.81 l 1.68,-1.68 a 0.56,0.56 0 0 1 0.77,-0.02 l 18.75,16.88 a 0.56,0.56 0 0 0 0.78,-0.03 L 120.71,91.1 a 0.56,0.56 0 0 1 0.77,-0.04 l 1.87,1.59 a 0.56,0.56 0 0 1 0.03,0.82 z" id="path32"/>
  <path fill="#121213" d="m 175.12,86.26 c 18.25,-0.18 40.54,-3.02 42.63,22.36 q 1.08,13.11 0.25,26.32 c -0.44,6.92 -9.72,6.09 -9.73,0.75 Q 208.25,123.1 208.2,110.5 c -0.09,-20.09 -30.01,-19.49 -29.99,-2.25 q 0.01,12.36 0.05,24.71 c 0.01,5.3 -2.86,8.83 -8.4,5.89 q -0.44,-0.24 -0.56,-0.74 c -0.3,-1.26 -1.03,-2.4 -1.03,-3.68 q -0.05,-21.34 0,-42.68 c 0,-4.24 2.97,-5.45 6.85,-5.49 z" id="path34"/>
  <path fill="#121213" d="m 280.73,103.72 c 11.64,-28.5 51.2,-19.57 51.48,11.04 q 0.09,10.83 0.01,21.69 c -0.04,5.63 -15.43,4.13 -18.99,4.1 q -10.93,-0.09 -14.4,-0.78 c -15.73,-3.12 -23.91,-21.82 -18.1,-36.05 z m 24.8732,27.7799 a 18.1,17.17 89.8 0 0 17.1067,-18.1598 18.1,17.17 89.8 0 0 -17.2331,-18.04 18.1,17.17 89.8 0 0 -17.1067,18.1598 18.1,17.17 89.8 0 0 17.2331,18.04 z" id="path36"/>
  <path fill="#121213" d="m 352.39,93.9 c 3.62,-4.88 8.46,-6.45 14.59,-7.18 6.6,-0.79 22.35,2.15 23.29,10.87 a 1.45,1.4 58.2 0 1 -0.2,0.92 c -3.91,6.31 -9.46,-1 -13.37,-2.33 -4.4,-1.5 -12.9,-1.98 -16.22,2.1 -2.68,3.3 0.44,7.49 4.02,8.49 10.1,2.83 31.09,5.16 26.07,21.75 -6.35,20.96 -48.52,9.16 -41.91,-1.07 4.06,-6.26 9.22,0.82 13.2,2.41 q 7.24,2.9 14.41,0.93 c 6.53,-1.8 7.18,-9 1.05,-11.89 -5.2,-2.45 -14.24,-2.74 -21.06,-7.2 -5.99,-3.91 -8.53,-11.52 -3.87,-17.8 z" id="path38"/>
  <ellipse fill="#fcfcfc" cx="114.46584" cy="-305.1423" transform="rotate(89.8)" rx="18.1" ry="17.17" id="ellipse40"/>
</svg>